HIERARCHY
ROOT pelvis
{
  OFFSET 0 100 0
  CHANNELS 6 Xposition Yposition Zposition Zrotation Xrotation Yrotation
  JOINT pelvis_right_femur
  {
    OFFSET -10.78128 -3.44521 -0.5502486
    CHANNELS 3 Zrotation Xrotation Yrotation
    JOINT right_femur_tibia
    {
      OFFSET -0.8047443 -44.0398 -0.1307829
      CHANNELS 3 Zrotation Xrotation Yrotation
      JOINT right_tibia_foot
      {
        OFFSET 3.006224 -47.83518 -5
        CHANNELS 3 Zrotation Xrotation Yrotation
        End Site
        {
          OFFSET 0 -5 15
        }
      }
    }
  }
  JOINT pelvis_left_femur
  {
    OFFSET 10.78128 -3.44521 -0.5502486
    CHANNELS 3 Zrotation Xrotation Yrotation
    JOINT left_femur_tibia
    {
      OFFSET 0.8047443 -44.0398 -0.1307829
      CHANNELS 3 Zrotation Xrotation Yrotation
      JOINT left_tibia_foot
      {
        OFFSET -4.370144 -48.10324 -4.275266
        CHANNELS 3 Zrotation Xrotation Yrotation
        End Site
        {
          OFFSET 0 -5 15
        }
      }
    }
  }
  JOINT pelvis_spine1
  {
    OFFSET 0 6.468898 -3.129235
    CHANNELS 3 Zrotation Xrotation Yrotation
    JOINT spine1
    {
      OFFSET 0 23.15396 4.99043
      CHANNELS 3 Zrotation Xrotation Yrotation
      JOINT spine2
      {
        OFFSET 0 20.79997 -5.064912
        CHANNELS 3 Zrotation Xrotation Yrotation
        JOINT neck
        {
          OFFSET 0 14.38658 9.616178
          CHANNELS 3 Zrotation Xrotation Yrotation
          End Site
          {
            OFFSET 0 20 0
          }
        }
      }
      JOINT right_manubrium
      {
        OFFSET -5.722621 16.35077 3.967754
        CHANNELS 3 Zrotation Xrotation Yrotation
        JOINT right_clavicle
        {
          OFFSET -13.16364 1.694482 -4.693211
          CHANNELS 3 Zrotation Xrotation Yrotation
          JOINT right_humerus
          {
            OFFSET -28.5034 -0.3100689 -2.792744
            CHANNELS 3 Zrotation Xrotation Yrotation
            JOINT right_radius
            {
              OFFSET -25.15693 0.02248979 -1.271978
              CHANNELS 3 Zrotation Xrotation Yrotation
              End Site
              {
                OFFSET -15 0 0
              }
            }
          }
        }
      }
      JOINT left_manubrium
      {
        OFFSET 5.722621 16.35077 3.967754
        CHANNELS 3 Zrotation Xrotation Yrotation
        JOINT left_clavicle
        {
          OFFSET 13.16364 1.694482 -4.693211
          CHANNELS 3 Zrotation Xrotation Yrotation
          JOINT left_humerus
          {
            OFFSET 29.39168 -1.063119 -2.237045
            CHANNELS 3 Zrotation Xrotation Yrotation
            JOINT left_radius
            {
              OFFSET 24.59957 -0.9528479 0.9047498
              CHANNELS 3 Zrotation Xrotation Yrotation
              End Site
              {
                OFFSET 15 -0 -0
              }
            }
          }
        }
      }
    }
  }
}
MOTION
Frames: 11
Frame Time: 0.0416666666667
0 103.5113 0 0.5489079 -0.4847105 -0.08212135 4.407453 -17.77968 10.53951 -0 39.83077 -0 -5.284031 -16.57694 -3.5681 -6.906888 10.15692 -23.56873 -0 5.777216 -0 9.989427 -15.93085 27.74716 -3.618203 -3.556574 4.722137 2.756781 9.745351 -7.862182 1.25815 21.79693 7.020977 3.206689 -24.94836 9.546466 6.862763 -20.2139 11.92134 85.1199 36.33929 -18.80911 -0 0 17.05314 -6.504583 8.186631 4.303399 5.355905 -19.14422 -1.717873 -94.6407 26.83789 23.4744 0 0 -15.11698 7.766037 16.50593 5.342283
0.307847 104.191 1.43377 0.5228641 -0.755742 -0.117179 4.173511 -17.88377 10.08286 -0 39.84679 -0 -5.552596 -16.20294 -3.640047 -6.775705 10.57278 -23.11579 -0 5.751424 -0 9.573915 -16.12438 27.18728 -3.622031 -3.428714 4.494627 2.792082 9.668045 -7.910824 1.204457 21.94538 7.022471 3.098938 -24.88215 9.523564 6.511768 -20.02938 11.82476 85.4383 35.64046 -18.92083 -0 0 16.59203 -6.804494 7.932396 4.449651 5.289029 -19.28693 -1.798188 -94.12237 26.7358 22.72943 0 0 -15.08969 7.896256 16.36225 5.040095
0.6217093 104.7059 3.111016 0.1301379 0.6496431 -0.1086498 5.479876 -22.13213 10.48883 -0 35.12914 -0 -4.86739 -15.25533 -3.443178 -6.714678 10.97017 -23.07804 -0 5.49126 -0 9.077127 -18.30708 27.19207 -3.32022 -3.028915 4.889039 2.752552 9.265452 -7.7158 1.675362 21.35388 7.081324 3.276169 -25.60114 10.16825 6.479423 -19.76154 11.46686 85.37603 36.21073 -19.28723 -0 0 16.52868 -5.978323 8.724981 3.638509 6.217576 -19.58585 -1.161123 -94.36639 27.30694 22.6704 0 0 -17.09783 8.375464 16.66299 5.168553
0.937819 105.0795 5.081133 -0.2347546 1.814316 -0.00581778 6.539386 -25.61044 10.58093 -0 31.38402 -0 -4.605329 -13.74001 -3.115894 -6.612601 11.34351 -22.67945 -0 5.505555 -0 8.661163 -19.84549 26.7898 -3.07908 -2.677058 5.04519 2.791724 9.065245 -7.674484 1.927176 20.83903 7.178609 3.470731 -26.19358 10.54174 6.463936 -19.49834 11.25624 85.44143 36.7058 -19.65407 -0 0 16.2214 -5.57492 9.236597 3.236893 6.924414 -19.97858 -0.7193578 -94.21588 27.24328 22.29248 0 0 -18.63838 9.123922 16.55561 4.7265
1.225418 105.3041 7.536862 -0.7196287 2.775422 0.2518237 7.447709 -29.19336 10.20791 -0 27.46748 -0 -4.811312 -11.50661 -2.847638 -6.293611 12.28147 -21.67338 -0 6.015077 -0 7.341457 -21.52743 25.38736 -2.754487 -2.199425 4.857005 2.898615 8.792444 -7.761882 2.079494 20.44705 7.307501 3.585226 -26.73977 10.8351 6.085673 -18.97603 10.95325 85.95481 36.51156 -20.32564 -0 0 15.27152 -5.552314 9.520531 3.068054 7.503206 -20.56735 -0.3695222 -93.56602 27.26863 21.19457 0 0 -20.2788 9.6246 16.26085 4.40627
1.478305 105.4307 10.52835 -1.245366 3.558502 0.6557234 8.23594 -32.1446 9.725584 -0 24.04028 -0 -5.270664 -9.163576 -2.583726 -5.899745 13.26382 -20.48864 -0 7.173221 -0 5.640295 -22.73981 23.55329 -2.364692 -1.765873 4.5153 3.026507 8.580247 -7.925049 2.130415 20.11996 7.450698 3.689368 -27.16596 10.99149 5.68733 -18.40777 10.69925 86.56935 36.18769 -21.0566 -0 0 14.18204 -5.754929 9.730579 3.083097 7.900373 -21.14383 -0.1404368 -92.84862 27.23444 20.05583 0 0 -21.65455 9.872731 15.85307 4.248596
1.68456 105.4997 14.14372 -1.802763 3.983961 1.182537 8.7691 -34.23493 8.971415 -0 21.12103 -0 -6.022739 -6.894017 -2.40031 -5.387731 14.39477 -19.00398 -0 9.334397 -0 3.383885 -23.31348 21.14008 -1.881876 -1.360435 3.963447 3.166177 8.380572 -8.147082 2.079553 19.94544 7.584848 3.718681 -27.3734 11.00647 5.145921 -17.70342 10.45222 87.3561 35.46943 -21.82229 -0 0 12.80313 -6.284218 9.832842 3.284717 8.063754 -21.68577 -0.07778147 -91.90318 27.07754 18.59901 0 0 -22.65169 9.922889 15.33741 4.099525
1.848888 105.5939 18.40495 -2.340349 4.059526 1.771462 9.094449 -35.12261 8.119134 -0 18.96628 -0 -6.911492 -5.073774 -2.293557 -4.824043 15.33693 -17.42762 -0 12.6788 -0 0.873566 -22.96034 18.50405 -1.303235 -1.038683 3.335779 3.26996 8.235587 -8.365157 1.952167 19.89997 7.690187 3.69778 -27.31814 10.879 4.613842 -16.96216 10.2561 88.13211 34.62678 -22.46429 -0 0 11.40848 -7.030391 9.929044 3.608938 7.984338 -22.06848 -0.1826684 -90.96897 26.78504 17.18116 0 0 -23.11257 9.776786 14.77416 4.015213
1.97984 105.8084 23.30405 -2.789519 3.689355 2.332757 9.170943 -34.5002 7.173137 -0 17.6815 -0 -7.85823 -3.997261 -2.310593 -4.237386 15.89171 -15.80178 -0 17.4781 -0 -1.676158 -21.4976 15.87575 -0.648257 -0.8093063 2.706807 3.305392 8.147198 -8.523633 1.766165 20.02699 7.736059 3.604371 -26.9381 10.61055 4.096748 -16.20591 10.1113 88.84956 33.67699 -22.88011 -0 0 10.0544 -7.971408 10.03626 4.017509 7.647148 -22.22663 -0.4647113 -90.07261 26.31723 15.83471 0 0 -22.94172 9.513776 14.19568 3.899071
2.091473 106.2613 28.77006 -3.07248 2.874016 2.763239 9.036476 -32.21135 6.234949 -0 17.29464 -0 -8.747441 -3.871463 -2.456657 -3.687767 15.73347 -14.24323 -0 23.82448 -0 -3.934648 -18.92409 13.60382 0.02822992 -0.6692757 2.217895 3.237229 8.140507 -8.55819 1.553453 20.32771 7.69883 3.454225 -26.23715 10.21851 3.662757 -15.5177 10.03419 89.4215 32.78867 -22.97756 -0 0 8.885952 -9.006687 10.19153 4.448406 7.086425 -22.11991 -0.8914968 -89.33763 25.71566 14.75956 0 0 -22.14974 9.189955 13.65847 3.757326
2.194141 107.0697 34.66864 -3.108384 1.616882 2.963154 8.707799 -28.27228 5.360392 -0 17.6582 -0 -9.511765 -4.712284 -2.715438 -3.241902 14.57223 -12.82095 -0 31.69688 -0 -5.627204 -15.4772 11.9744 0.624783 -0.5788571 2.005886 3.044532 8.242795 -8.415576 1.35227 20.8101 7.554043 3.270856 -25.25619 9.724369 3.339116 -14.97489 10.03078 89.81585 32.0776 -22.71887 -0 0 7.959618 -10.04511 10.38717 4.839539 6.370287 -21.78796 -1.412388 -88.81837 25.04776 14.0546 0 0 -20.8722 8.884385 13.22176 3.573181
